<svg width="18" height="14" viewBox="0 0 18 14" fill="none" xmlns="http://www.w3.org/2000/svg">
<path d="M15.6667 0.333344H2.33333C1.41666 0.333344 0.674997 1.08334 0.674997 2.00001L0.666664 12C0.666664 12.9167 1.41666 13.6667 2.33333 13.6667H15.6667C16.5833 13.6667 17.3333 12.9167 17.3333 12V2.00001C17.3333 1.08334 16.5833 0.333344 15.6667 0.333344ZM14.8333 12H3.16666C2.70833 12 2.33333 11.625 2.33333 11.1667V3.66668L8.11666 7.28334C8.65833 7.62501 9.34167 7.62501 9.88333 7.28334L15.6667 3.66668V11.1667C15.6667 11.625 15.2917 12 14.8333 12ZM9 6.16668L2.33333 2.00001H15.6667L9 6.16668Z" fill="white"/>
</svg>
