<svg width="20" height="20" viewBox="0 0 20 20" fill="none" xmlns="http://www.w3.org/2000/svg">
<path d="M9 7.00012H11V5.00012H9V7.00012ZM10 18.0001C5.59 18.0001 2 14.4101 2 10.0001C2 5.59012 5.59 2.00012 10 2.00012C14.41 2.00012 18 5.59012 18 10.0001C18 14.4101 14.41 18.0001 10 18.0001ZM10 0.00012207C8.68678 0.00012207 7.38642 0.25878 6.17317 0.761327C4.95991 1.26387 3.85752 2.00047 2.92893 2.92905C1.05357 4.80442 0 7.34796 0 10.0001C0 12.6523 1.05357 15.1958 2.92893 17.0712C3.85752 17.9998 4.95991 18.7364 6.17317 19.2389C7.38642 19.7415 8.68678 20.0001 10 20.0001C12.6522 20.0001 15.1957 18.9466 17.0711 17.0712C18.9464 15.1958 20 12.6523 20 10.0001C20 8.6869 19.7413 7.38654 19.2388 6.17329C18.7362 4.96003 17.9997 3.85764 17.0711 2.92905C16.1425 2.00047 15.0401 1.26387 13.8268 0.761327C12.6136 0.25878 11.3132 0.00012207 10 0.00012207ZM9 15.0001H11V9.00012H9V15.0001Z" fill="#6E41E2"/>
</svg>
